# xmcd
#
# Track frame offsets:
#	150
#	14395
#	27982
#	40715
#	56570
#	81597
#	95292
#	106457
#	123355
#	138722
#	153152
#
# Disc length: 2208 seconds
#
# Revision: 1
# Processed by: cddbd v1.5PL3 Copyright (c) Steve Scherf et al.
# Submitted via: CDex 1.50Beta5
#
DISCID=8b089e0b
DTITLE=スクーターズ - “娘ごころはスクーターズ”
DYEAR=1999
DGENRE=Rock
TTITLE0=バイ・バイ・グッドバイ
TTITLE1=あしたのヒート・ウエイブ
TTITLE2=“うかれ2”ワッチャ
TTITLE3=オー・ハニー
TTITLE4=抱いて
TTITLE5=ヤーヨは愛の言葉
TTITLE6=涙のブレイク・アウェイ
TTITLE7=電話はスバヤク
TTITLE8=危ないドライブ
TTITLE9=東京ディスコナイト
TTITLE10=恋のバカンス
EXTD=
EXTT0=
EXTT1=
EXTT2=
EXTT3=
EXTT4=
EXTT5=
EXTT6=
EXTT7=
EXTT8=
EXTT9=
EXTT10=
PLAYORDER=
